<?xml version="1.0" encoding="UTF-8" standalone="no"?>
<!-- Created with Inkscape (http://www.inkscape.org/) -->

<svg
   width="4.3682499mm"
   height="3.4038301mm"
   viewBox="0 0 4.3682499 3.40383"
   version="1.1"
   id="svg777"
   xmlns="http://www.w3.org/2000/svg"
   xmlns:svg="http://www.w3.org/2000/svg">
  <defs
     id="defs774" />
  <g
     id="layer1"
     transform="translate(-155.51935,-145.56617)">
    <path
       d="m 159.8876,146.06779 h -0.17277 c -0.064,0 -0.15478,0.0911 -0.15478,0.14938 v 2.11328 c 0,0.0584 0.0908,0.13793 0.15478,0.13793 h 0.17277 V 148.97 h -1.56527 v -0.50162 h 0.32755 v -2.22144 h -0.0159 L 157.8688,148.97 h -0.5924 l -0.75512,-2.72306 h -0.019 v 2.22144 h 0.32755 V 148.97 h -1.31048 v -0.50162 h 0.16775 c 0.0691,0 0.15981,-0.0796 0.15981,-0.13793 v -2.11328 c 0,-0.0583 -0.0908,-0.14938 -0.15981,-0.14938 h -0.16775 v -0.50162 h 1.63883 l 0.5379,1.97064 h 0.0148 l 0.54292,-1.97064 h 1.6338 z"
       fill="#757e9a"
       id="path13"
       style="stroke-width:0.264583" />
  </g>
</svg>
