<?xml version="1.0" encoding="UTF-8" standalone="no"?>
<!-- Created with Inkscape (http://www.inkscape.org/) -->

<svg
   width="3.8883119mm"
   height="3.1194344mm"
   viewBox="0 0 3.8883118 3.1194343"
   version="1.1"
   id="svg777"
   xmlns="http://www.w3.org/2000/svg"
   xmlns:svg="http://www.w3.org/2000/svg">
  <defs
     id="defs774" />
  <g
     id="layer1"
     transform="translate(-144.50592,-139.13558)">
    <path
       d="m 145.9684,142.06604 c -0.11583,0 -0.0961,-0.0418 -0.1361,-0.14732 l -0.34065,-1.07235 2.62215,-1.48791"
       fill="#9399ab"
       id="path15"
       style="stroke-width:0.264583" />
    <path
       d="m 145.96843,142.06604 c 0.0894,0 0.1289,-0.0391 0.17878,-0.0855 l 0.47675,-0.44342 -0.59468,-0.34301"
       fill="#70788e"
       id="path17"
       style="stroke-width:0.264583" />
    <path
       d="m 146.0292,141.19421 1.44098,1.0183 c 0.16443,0.0868 0.2831,0.0419 0.32406,-0.14602 l 0.58655,-2.64383 c 0.0601,-0.2303 -0.0918,-0.33475 -0.24908,-0.26644 l -3.44424,1.27032 c -0.2351,0.0902 -0.23373,0.21565 -0.0429,0.27155 l 0.88387,0.26387 2.04626,-1.2348 c 0.0966,-0.056 0.18526,-0.0259 0.1125,0.0359"
       fill="#b6bac7"
       id="path19"
       style="stroke-width:0.264583" />
  </g>
</svg>
