<?xml version="1.0" encoding="UTF-8" standalone="no"?>
<!-- Created with Inkscape (http://www.inkscape.org/) -->

<svg
   width="4.3680701mm"
   height="3.6470699mm"
   viewBox="0 0 4.3680701 3.6470699"
   version="1.1"
   id="svg777"
   xmlns="http://www.w3.org/2000/svg"
   xmlns:svg="http://www.w3.org/2000/svg">
  <defs
     id="defs774" />
  <g
     id="layer1"
     transform="translate(-147.88017,-141.7812)">
    <path
       fill-rule="evenodd"
       clip-rule="evenodd"
       d="m 152.24824,142.21242 c -0.16087,0.0733 -0.33338,0.12271 -0.51462,0.14514 0.18495,-0.11401 0.32703,-0.29449 0.39397,-0.50947 -0.17331,0.10553 -0.36513,0.18217 -0.56912,0.22347 -0.16351,-0.17887 -0.39635,-0.29036 -0.65432,-0.29036 -0.49477,0 -0.89614,0.41229 -0.89614,0.92064 0,0.0722 0.008,0.14248 0.0233,0.20986 -0.7448,-0.0386 -1.40536,-0.40528 -1.84732,-0.96201 -0.0771,0.13603 -0.12131,0.29407 -0.12131,0.46278 0,0.31938 0.15822,0.60114 0.3986,0.76637 -0.14674,-0.005 -0.28501,-0.0463 -0.40582,-0.11534 v 0.0116 c 0,0.4463 0.30919,0.81827 0.71871,0.90294 -0.0751,0.021 -0.15425,0.0323 -0.23569,0.0323 -0.0577,0 -0.11398,-0.006 -0.16859,-0.0165 0.11398,0.36587 0.44503,0.63204 0.83725,0.63947 -0.30684,0.24681 -0.69329,0.39405 -1.11334,0.39405 -0.0723,0 -0.14354,-0.004 -0.21363,-0.0128 0.39656,0.26128 0.86773,0.41371 1.3738,0.41371 1.64835,0 2.54979,-1.40304 2.54979,-2.61958 0,-0.04 -8e-4,-0.0796 -0.003,-0.1192 0.17515,-0.12971 0.32729,-0.29203 0.44741,-0.47679"
       fill="#6188ff"
       id="path9"
       style="stroke-width:0.264583" />
  </g>
</svg>
